<svg aria-hidden="true" style="position: absolute; width: 0; height: 0; overflow: hidden;" version="1.1" xmlns="http://www.w3.org/2000/svg" xmlns:xlink="http://www.w3.org/1999/xlink">
<defs>
        <symbol id="icon-menu" viewBox="0 0 32 32">
<path stroke-linejoin="round" stroke-linecap="square" stroke-miterlimit="4" stroke-width="1.3333" d="M4 16h24"></path>
<path stroke-linejoin="round" stroke-linecap="square" stroke-miterlimit="4" stroke-width="1.3333" d="M4 8h24"></path>
<path stroke-linejoin="round" stroke-linecap="square" stroke-miterlimit="4" stroke-width="1.3333" d="M4 24h24"></path>
</symbol>
<symbol id="icon-arrow-next" viewBox="0 0 164 32">
<path d="M161.414 16.533c0.781-0.781 0.781-2.047 0-2.828l-12.728-12.728c-0.781-0.781-2.048-0.781-2.828 0s-0.781 2.047 0 2.828l11.314 11.314-11.314 11.314c-0.781 0.781-0.781 2.047 0 2.828s2.047 0.781 2.828 0l12.728-12.728zM0 17.119h160v-4h-160v4z"></path>
</symbol>
<symbol id="icon-arrow-back" viewBox="0 0 164 32">
<path  d="M2.586 13.705c-0.781 0.781-0.781 2.047 0 2.828l12.728 12.728c0.781 0.781 2.047 0.781 2.828 0s0.781-2.047 0-2.828l-11.314-11.314 11.314-11.314c0.781-0.781 0.781-2.047 0-2.828s-2.047-0.781-2.828 0l-12.728 12.728zM164 13.119h-160v4h160v-4z"></path>
</symbol>
<symbol id="icon-ellipse-active" viewBox="0 0 26 32">
<path fill="#b31719" style="fill: var(--color1, #b31719)" d="M25.6 14.53c0 7.069-5.731 12.8-12.8 12.8s-12.8-5.731-12.8-12.8c0-7.069 5.731-12.8 12.8-12.8s12.8 5.731 12.8 12.8z"></path>
</symbol>
<symbol id="icon-ellipse" viewBox="0 0 26 32">
<path fill="#b31719" style="fill: var(--color1, #b31719)" opacity="0.4" d="M25.6 14.53c0 7.069-5.731 12.8-12.8 12.8s-12.8-5.731-12.8-12.8c0-7.069 5.731-12.8 12.8-12.8s12.8 5.731 12.8 12.8z"></path>
</symbol>
<symbol id="icon-down" viewBox="0 0 31 32">
<path stroke-linejoin="round" stroke-linecap="square" stroke-miterlimit="4" stroke-width="1.28" d="M7.68 11.866l7.68 7.68 7.68-7.68"></path>
</symbol>
<symbol id="icon-instagram" viewBox="0 0 32 32">
<path d="M16 2.881c4.275 0 4.781 0.019 6.462 0.094 1.563 0.069 2.406 0.331 2.969 0.55 0.744 0.288 1.281 0.638 1.837 1.194 0.563 0.563 0.906 1.094 1.2 1.838 0.219 0.563 0.481 1.412 0.55 2.969 0.075 1.688 0.094 2.194 0.094 6.463s-0.019 4.781-0.094 6.463c-0.069 1.563-0.331 2.406-0.55 2.969-0.288 0.744-0.637 1.281-1.194 1.837-0.563 0.563-1.094 0.906-1.837 1.2-0.563 0.219-1.413 0.481-2.969 0.55-1.688 0.075-2.194 0.094-6.463 0.094s-4.781-0.019-6.463-0.094c-1.563-0.069-2.406-0.331-2.969-0.55-0.744-0.288-1.281-0.637-1.838-1.194-0.563-0.563-0.906-1.094-1.2-1.837-0.219-0.563-0.481-1.413-0.55-2.969-0.075-1.688-0.094-2.194-0.094-6.463s0.019-4.781 0.094-6.463c0.069-1.563 0.331-2.406 0.55-2.969 0.288-0.744 0.638-1.281 1.194-1.838 0.563-0.563 1.094-0.906 1.838-1.2 0.563-0.219 1.412-0.481 2.969-0.55 1.681-0.075 2.188-0.094 6.463-0.094zM16 0c-4.344 0-4.887 0.019-6.594 0.094-1.7 0.075-2.869 0.35-3.881 0.744-1.056 0.412-1.95 0.956-2.837 1.85-0.894 0.888-1.438 1.781-1.85 2.831-0.394 1.019-0.669 2.181-0.744 3.881-0.075 1.713-0.094 2.256-0.094 6.6s0.019 4.887 0.094 6.594c0.075 1.7 0.35 2.869 0.744 3.881 0.413 1.056 0.956 1.95 1.85 2.837 0.887 0.887 1.781 1.438 2.831 1.844 1.019 0.394 2.181 0.669 3.881 0.744 1.706 0.075 2.25 0.094 6.594 0.094s4.888-0.019 6.594-0.094c1.7-0.075 2.869-0.35 3.881-0.744 1.050-0.406 1.944-0.956 2.831-1.844s1.438-1.781 1.844-2.831c0.394-1.019 0.669-2.181 0.744-3.881 0.075-1.706 0.094-2.25 0.094-6.594s-0.019-4.887-0.094-6.594c-0.075-1.7-0.35-2.869-0.744-3.881-0.394-1.063-0.938-1.956-1.831-2.844-0.887-0.887-1.781-1.438-2.831-1.844-1.019-0.394-2.181-0.669-3.881-0.744-1.712-0.081-2.256-0.1-6.6-0.1v0z"></path>
<path d="M16 7.781c-4.537 0-8.219 3.681-8.219 8.219s3.681 8.219 8.219 8.219 8.219-3.681 8.219-8.219c0-4.537-3.681-8.219-8.219-8.219zM16 21.331c-2.944 0-5.331-2.387-5.331-5.331s2.387-5.331 5.331-5.331c2.944 0 5.331 2.387 5.331 5.331s-2.387 5.331-5.331 5.331z"></path>
<path d="M26.462 7.456c0 1.060-0.859 1.919-1.919 1.919s-1.919-0.859-1.919-1.919c0-1.060 0.859-1.919 1.919-1.919s1.919 0.859 1.919 1.919z"></path>
</symbol>
<symbol id="icon-shindinde" viewBox="0 0 236 32">
<path d="M9.337 30.174c-3.405 0-6.427-0.819-9.064-2.458-0.282-0.154-0.346-0.371-0.192-0.653l1.344-2.842c0.128-0.282 0.333-0.333 0.615-0.154 0.768 0.486 1.421 0.871 1.959 1.152 0.538 0.256 1.306 0.538 2.304 0.845 0.999 0.282 1.997 0.422 2.996 0.422 1.562 0 2.778-0.333 3.649-0.999 0.947-0.691 1.421-1.677 1.421-2.957 0-1.485-1.101-2.65-3.303-3.495-0.333-0.128-1.383-0.474-3.149-1.037-1.741-0.563-3.098-1.114-4.071-1.652-2.407-1.357-3.61-3.29-3.61-5.799 0-2.228 0.832-3.982 2.496-5.262 1.69-1.331 4.071-1.997 7.144-1.997 3.021 0 5.684 0.64 7.989 1.92 0.256 0.154 0.32 0.371 0.192 0.653l-1.344 2.804c-0.154 0.282-0.371 0.346-0.653 0.192-2.1-1.229-4.238-1.844-6.414-1.844-1.69 0-2.945 0.346-3.764 1.037-0.743 0.589-1.114 1.357-1.114 2.304 0 0.794 0.294 1.447 0.883 1.959 0.615 0.486 1.511 0.935 2.688 1.344 0.512 0.179 1.306 0.422 2.381 0.73s2.023 0.615 2.842 0.922c0.845 0.307 1.6 0.679 2.266 1.114 2.151 1.357 3.226 3.277 3.226 5.761s-0.947 4.468-2.842 5.953c-1.716 1.357-4.007 2.036-6.875 2.036z"></path>
<path d="M45.609 3.635h3.341c0.307 0 0.461 0.166 0.461 0.499v25.195c0 0.307-0.154 0.461-0.461 0.461h-3.341c-0.333 0-0.5-0.154-0.5-0.461v-10.754h-13.788v10.754c0 0.307-0.154 0.461-0.461 0.461h-3.38c-0.307 0-0.461-0.154-0.461-0.461v-25.195c0-0.128 0.038-0.243 0.115-0.346 0.102-0.102 0.218-0.154 0.346-0.154h3.38c0.128 0 0.23 0.051 0.307 0.154 0.102 0.102 0.154 0.218 0.154 0.346v10.6h13.788v-10.6c0-0.333 0.166-0.499 0.5-0.499z"></path>
<path d="M59.151 3.635h3.38c0.128 0 0.23 0.051 0.307 0.154 0.102 0.102 0.154 0.218 0.154 0.346v25.195c0 0.307-0.154 0.461-0.461 0.461h-3.38c-0.307 0-0.461-0.154-0.461-0.461v-25.195c0-0.128 0.038-0.243 0.115-0.346 0.102-0.102 0.218-0.154 0.346-0.154z"></path>
<path d="M91.18 22.723v-18.589c0-0.333 0.154-0.499 0.461-0.499h3.149c0.333 0 0.499 0.166 0.499 0.499v25.195c0 0.307-0.166 0.461-0.499 0.461h-2.996c-0.358 0-0.64-0.166-0.845-0.499l-14.556-18.551v18.589c0 0.307-0.154 0.461-0.461 0.461h-3.188c-0.307 0-0.461-0.154-0.461-0.461v-25.195c0-0.128 0.038-0.243 0.115-0.346 0.102-0.102 0.218-0.154 0.346-0.154h2.996c0.333 0 0.628 0.166 0.884 0.499l14.556 18.589z"></path>
<path d="M128.596 16.732c0 5.223-1.971 8.949-5.914 11.177-2.253 1.255-5.108 1.882-8.565 1.882h-9.064c-0.307 0-0.461-0.154-0.461-0.461v-25.195c0-0.128 0.038-0.243 0.115-0.346 0.102-0.102 0.218-0.154 0.346-0.154h9.602c4.711 0 8.322 1.357 10.831 4.071 2.074 2.253 3.111 5.262 3.111 9.026zM108.893 7.283v18.896h4.878c2.484 0 4.507-0.41 6.068-1.229 2.919-1.485 4.378-4.225 4.378-8.219 0-2.817-0.73-5.019-2.189-6.606-1.741-1.895-4.404-2.842-7.988-2.842h-5.147z"></path>
<path d="M137.324 3.635h3.38c0.128 0 0.23 0.051 0.307 0.154 0.102 0.102 0.154 0.218 0.154 0.346v25.195c0 0.307-0.154 0.461-0.461 0.461h-3.38c-0.307 0-0.461-0.154-0.461-0.461v-25.195c0-0.128 0.038-0.243 0.115-0.346 0.102-0.102 0.218-0.154 0.346-0.154z"></path>
<path d="M169.352 22.723v-18.589c0-0.333 0.154-0.499 0.461-0.499h3.15c0.333 0 0.499 0.166 0.499 0.499v25.195c0 0.307-0.166 0.461-0.499 0.461h-2.996c-0.358 0-0.64-0.166-0.845-0.499l-14.556-18.551v18.589c0 0.307-0.154 0.461-0.461 0.461h-3.188c-0.308 0-0.461-0.154-0.461-0.461v-25.195c0-0.128 0.038-0.243 0.115-0.346 0.102-0.102 0.218-0.154 0.346-0.154h2.996c0.333 0 0.627 0.166 0.883 0.499l14.556 18.589z"></path>
<path d="M206.768 16.732c0 5.223-1.972 8.949-5.915 11.177-2.253 1.255-5.108 1.882-8.565 1.882h-9.064c-0.307 0-0.461-0.154-0.461-0.461v-25.195c0-0.128 0.038-0.243 0.115-0.346 0.102-0.102 0.218-0.154 0.346-0.154h9.602c4.711 0 8.321 1.357 10.831 4.071 2.074 2.253 3.111 5.262 3.111 9.026zM187.066 7.283v18.896h4.878c2.484 0 4.506-0.41 6.068-1.229 2.919-1.485 4.378-4.225 4.378-8.219 0-2.817-0.73-5.019-2.189-6.606-1.741-1.895-4.404-2.842-7.989-2.842h-5.146z"></path>
<path d="M215.496 3.635h18.282c0.308 0 0.461 0.166 0.461 0.499v2.842c0 0.307-0.154 0.461-0.461 0.461h-14.441v7.336h12.444c0.308 0 0.461 0.154 0.461 0.461v2.881c0 0.307-0.154 0.461-0.461 0.461h-12.444v7.413h14.441c0.308 0 0.461 0.154 0.461 0.461v2.881c0 0.307-0.154 0.461-0.461 0.461h-18.282c-0.307 0-0.461-0.154-0.461-0.461v-25.195c0-0.128 0.039-0.243 0.116-0.346 0.102-0.102 0.218-0.154 0.346-0.154z"></path>
</symbol>
<symbol id="icon-logo" viewBox="0 0 123 32">
<path d="M81.944 0.602c1.299 0 2.376 1.077 2.376 2.376v23.35l-17.299-26.012h-5.861v0.285c1.299 0 2.376 1.046 2.376 2.376v26.044c0 1.299-1.046 2.376-2.376 2.376v0 0.285h5.386v-0.285c-1.299 0-2.376-1.046-2.376-2.376v-27.818l20.15 30.828h0.634v-29.053c0-1.299 1.045-2.376 2.376-2.376v0-0.285h-5.386v0.285z"></path>
<path d="M21.386 0.348v6.939h-0.349c0-3.675-2.947-6.653-6.59-6.685h-6.59c-1.299 0-2.376 1.046-2.376 2.376v-2.376 14.574h4.594c1.869 0 3.422-1.521 3.422-3.422h0.285v7.287h-0.285v-0.158c0-1.679-1.331-3.042-2.978-3.105h-5.069v13.275c0 1.299 1.046 2.376 2.376 2.376h6.844c3.707-0.032 6.717-3.010 6.717-6.717v-0.634h0.317v7.509h-21.671v-0.222c1.299 0 2.376-1.045 2.376-2.376v-26.012c0-1.299-1.046-2.376-2.376-2.376h-0.032v-0.285h21.101l0.285 0.032z"></path>
<path d="M118.601 29.212l-12.705-29.212h-0.634l-12.515 29.085c-0.507 1.299-2.059 2.313-3.358 2.313v0.285h5.386v-0.285c-1.299 0-2.186-0.444-1.362-2.313l-0.982 2.313 4.467-10.424h14.511l3.422 8.047c0.919 1.901-0.76 2.376-2.059 2.376h0.032v0.285h9.061v-0.285c-1.014 0-2.44-1.014-3.263-2.186zM97.152 20.372l7.034-16.349 6.97 16.349h-14.004z"></path>
<path d="M40.65 0.317c-0.285 0-0.602 0-0.887 0.032h-11.533v0.285c1.299 0 2.376 1.046 2.376 2.376v-2.408 28.451c0 1.299-1.045 2.376-2.376 2.376v0 0.222h10.994c0.285 0 1.141 0 1.426 0 8.998 0 16.285-3.549 16.285-15.651 0-10.994-7.287-15.683-16.285-15.683zM40.079 31.43c-0.095 0-0.729 0-0.824 0h-3.168c-1.299 0-2.376-1.046-2.376-2.376v-26.075c0-1.299 1.045-2.376 2.376-2.376h3.707c0.095 0 0.19 0 0.285 0 7.509 0 13.592 2.756 13.592 15.398-0.032 12.673-6.115 15.43-13.592 15.43z"></path>
</symbol>
<symbol id="icon-menu-close" viewBox="0 0 32 32">
<path stroke-linejoin="round" stroke-linecap="square" stroke-miterlimit="4" stroke-width="1" d="M24 8l-16 16"></path>
<path stroke-linejoin="round" stroke-linecap="square" stroke-miterlimit="4" stroke-width="1" d="M8 8l16 16"></path>
</symbol>
</defs>
</svg>
